/* XPM */
static char *graphic[] = {
/* width height num_colors chars_per_pixel */
"16 16 200 2", 
/* colors */
"   c None",
".  c #A8731C",
"X  c #A88033",
"o  c #B79B4C",
"O  c #A48233",
"+  c None",
"@  c None",
"#  c #AD9134",
"$  c #A28440",
"%  c #B28632",
"&  c #B89B4A",
"*  c #B5AD67",
"=  c None",
"-  c #A98B44",
";  c #AFA059",
":  c #B0832F",
">  c #A68C39",
",  c None",
"<  c None",
"1  c None",
"2  c #C0A757",
"3  c #BCA14F",
"4  c #A8711C",
"5  c #A6924F",
"6  c #A9771C",
"7  c #B08D21",
"8  c #A68831",
"9  c #A98030",
"0  c #AA7622",
"q  c #B29F55",
"w  c None",
"e  c #A78E47",
"r  c #AB8132",
"t  c #AC8B3E",
"y  c #BDA14B",
"u  c #AC7B28",
"i  c #A98D32",
"p  c None",
"a  c None",
"s  c #A78F3F",
"d  c #B1902C",
"f  c #A87522",
"g  c #AA8D2C",
"h  c #996E1B",
"j  c #BB9C47",
"k  c #B99742",
"l  c None",
"z  c #B69E4D",
"x  c None",
"c  c #CBAD56",
"v  c #AE881F",
"b  c #B58F3A",
"n  c #E1C36D",
"m  c #BD9B35",
"M  c None",
"N  c #C8B061",
"B  c #BD9745",
"V  c #AEA158",
"C  c #B58936",
"Z  c #B4AC65",
"A  c #AE8434",
"S  c #B18F22",
"D  c None",
"F  c #AF7E2A",
"G  c #A47B28",
"H  c #A07A31",
"J  c #B39226",
"K  c #B4AE68",
"L  c #AC8132",
"P  c #A98B33",
"I  c #A67A29",
"U  c None",
"Y  c #B2AB65",
"T  c #AF8C20",
"R  c None",
"E  c #A9731F",
"W  c #A88E39",
"Q  c #A38E4B",
"!  c #A67828",
"~  c None",
"^  c #B49B4D",
"/  c None",
"(  c #AB8323",
")  c None",
"_  c #AB7D1E",
"`  c None",
"'  c #A9883E",
"]  c #A67829",
"[  c #AF8A20",
"{  c #B19127",
"}  c None",
"|  c #AA9752",
" . c #B49147",
".. c None",
"X. c #A8741C",
"o. c None",
"O. c #B39C4F",
"+. c #B6913C",
"@. c #9D8438",
"#. c #A88C34",
"$. c #BCA04C",
"%. c #BC9A4D",
"&. c None",
"*. c None",
"=. c #AD9435",
"-. c #B59949",
";. c #A37D34",
":. c None",
">. c #B39444",
",. c #BA9F4B",
"<. c #B0994D",
"1. c None",
"2. c #A8721C",
"3. c None",
"4. c #C29B50",
"5. c #A9924A",
"6. c #C5AB53",
"7. c #AA7520",
"8. c #A0823E",
"9. c #B08430",
"0. c #AE9748",
"q. c #AD851E",
"w. c #CEA652",
"e. c #BEA139",
"r. c None",
"t. c #A8721D",
"y. c #AC7A26",
"u. c #AA731F",
"i. c #AD8538",
"p. c #B28B38",
"a. c None",
"s. c None",
"d. c #B08633",
"f. c #A9761C",
"g. c None",
"h. c #BDA04A",
"j. c None",
"k. c #AD831E",
"l. c None",
"z. c #AD9035",
"x. c #AD9C57",
"c. c None",
"v. c None",
"b. c #A8822D",
"n. c #AB9A49",
"m. c #B79C52",
"M. c #A88634",
"N. c #B99843",
"B. c None",
"V. c None",
"C. c #A48137",
"Z. c #9A7724",
"A. c #A78B30",
"S. c #B19022",
"D. c #A47421",
"F. c #B69D4D",
"G. c #A99854",
"H. c #A27A31",
"J. c #C3A13A",
"K. c None",
"L. c #AB7B25",
"P. c #A7832A",
"I. c #AB7E1C",
"U. c None",
"Y. c #AF9230",
"T. c #BB9F4C",
"R. c #BA9B38",
"E. c #B19023",
"W. c None",
"Q. c #AF9247",
"!. c None",
"~. c #B2A660",
"^. c #AD7C28",
"/. c #AC9134",
"(. c None",
"). c #B4984A",
"_. c None",
"`. c #B2AA64",
"'. c #B3983D",
"]. c #AB7C1C",
"[. c #AF8F23",
"{. c #B0A15C",
"}. c #AF964D",
"|. c None",
" X c #BC9F49",
".X c #BCA14B",
"XX c #A97D1D",
"oX c #A8791F",
"OX c #AD9D52",
"+X c None",
"@X c None",
"#X c #BA9A45",
"$X c #AD954C",
"%X c #AC821E",
"&X c None",
"*X c #AB9047",
"=X c #AF8F25",
"-X c #C5A241",
";X c #AB923A",
":X c #AD9B52",
/* pixels */
"          M :.p + r.R           ",
"      v.B.N & @.s c n j.R       ",
"    ` 6.2 3 .Xh.j k B w.K./     ",
"  1.0.o y $.F.-.>.p.: F C ) l   ",
"a.} }.y ,.q | *X| 9 y.7.u.i.1   ",
"l.O.T.h.^ ~.5.d.- ! E 2.. L.t l ",
"< m. X#X<.Z e r ;.X f X.6 _ M.&.",
"*.z N.+.Q.* Q $ H x.$XoXI.k.8 @ ",
"U.).b % A {.5 H.8.G.`.P.q.[ i 3.",
"~  .9.^.0 ] ' C.G :XK A.T S #.D ",
"+X4.u 7.t.2.I O XXOXY g S { > !.",
"= w L 4 . f.b.; P V n.[.E.# c.  ",
"  a %.D.6 ].( z./.=.=XE.d W x   ",
"    W.Z.h %Xv 7 S S.J Y.;Xg.    ",
"      &X@Xm -XJ.e.R.'.|...      ",
"        s._.(.U V., o.a.        "
};
