/* XPM */
static char *graphic[] = {
/* width height num_colors chars_per_pixel */
"32 32 558 2", 
/* colors */
"   c None",
".  c #B5A053",
"X  c #B5A35D",
"o  c #B48D38",
"O  c #D1B456",
"+  c #B7B26B",
"@  c #A8731C",
"#  c None",
"$  c None",
"%  c #D8C06F",
"&  c #B5AD66",
"*  c #A08A3D",
"=  c #8D721C",
"-  c None",
";  c #E2C457",
":  c #A98E3B",
">  c #A9985A",
",  c #B08F21",
"<  c #A98F47",
"1  c None",
"2  c #B6962A",
"3  c #B48B37",
"4  c #A5903A",
"5  c #AD8837",
"6  c #B7B06A",
"7  c #B49125",
"8  c #A6924E",
"9  c #B48D39",
"0  c #A77524",
"q  c #9C8542",
"w  c None",
"e  c #ACA15E",
"r  c #88702F",
"t  c #B28834",
"y  c None",
"u  c #A68644",
"i  c #F1D168",
"p  c None",
"a  c #AA741F",
"s  c #AD914B",
"d  c #A4751D",
"f  c #9F762D",
"g  c #D4B141",
"h  c #957634",
"j  c #A38C42",
"k  c #B0832F",
"l  c #B08F22",
"z  c #B1922B",
"x  c #AA7621",
"c  c #AC8A3F",
"v  c #AE7E2A",
"b  c #AE943D",
"n  c #B79D4F",
"m  c #A8711C",
"M  c #AC7925",
"N  c #A9771C",
"B  c None",
"V  c #B1A55F",
"C  c #A07225",
"Z  c #B0812E",
"A  c #B08D21",
"S  c #AA7D1C",
"D  c None",
"F  c #DABE77",
"G  c #977D3C",
"H  c #CFAF46",
"J  c None",
"K  c #AA7622",
"L  c #AD841E",
"P  c #AC9757",
"I  c #AC9247",
"U  c #8D6F21",
"Y  c #A47E32",
"T  c #A38840",
"R  c None",
"E  c #B49542",
"W  c #AEA060",
"Q  c #A2792D",
"!  c #BDA14B",
"~  c None",
"^  c #EDCF66",
"/  c #AC964B",
"(  c #AD821D",
")  c #BB9D3B",
"_  c None",
"`  c #B4952B",
"'  c #BB9C46",
"]  c None",
"[  c #AF9440",
"{  c #C7A251",
"}  c #B5AF6B",
"|  c #A6701C",
" . c #B99741",
".. c #BB9E48",
"X. c #A9751C",
"o. c None",
"O. c #A7761C",
"+. c #B1883C",
"@. c #DBB86E",
"#. c #9B742C",
"$. c #AA7B1C",
"%. c #BFA74E",
"&. c #A38F53",
"*. c #AA8D43",
"=. c None",
"-. c #B7B26F",
";. c #B49157",
":. c #B89D4C",
">. c #B2903E",
",. c #A57829",
"<. c #BB9C47",
"1. c #A58D38",
"2. c #B08B39",
"3. c #A39357",
"4. c #A18A3C",
"5. c #B29839",
"6. c #B99742",
"7. c #BB9E49",
"8. c #B59527",
"9. c #BCA662",
"0. c #BBA04B",
"q. c #B69C4B",
"w. c #B7923D",
"e. c #A17626",
"r. c None",
"t. c #AA9A5B",
"y. c None",
"u. c None",
"i. c #B4AA62",
"p. c #B7943F",
"a. c #B39224",
"s. c #ABA05B",
"d. c None",
"f. c None",
"g. c #AFA05D",
"h. c None",
"j. c #B9992D",
"k. c #ADA15D",
"l. c #A46F1C",
"z. c #AFA864",
"x. c #A07721",
"c. c None",
"v. c #AE881F",
"b. c #A78F3F",
"n. c #A7741C",
"m. c #BAA051",
"M. c #A27D33",
"N. c #AA791C",
"B. c #AE872A",
"V. c #BDA65E",
"C. c #CEB671",
"Z. c #D9B749",
"A. c #9D8633",
"S. c #AE861E",
"D. c None",
"F. c None",
"G. c #B58D39",
"H. c #A58D38",
"J. c #AE9750",
"K. c None",
"L. c #C2A542",
"P. c #A38642",
"I. c #B58F3B",
"U. c #B5AF6E",
"Y. c #AA8729",
"T. c #9F803B",
"R. c #846C2F",
"E. c #A4711F",
"W. c #AB9C59",
"Q. c #BCB470",
"!. c #B38A36",
"~. c #B18F22",
"^. c #AB7621",
"/. c #A37528",
"(. c #B6AF69",
"). c #A0782F",
"_. c #CBB065",
"`. c None",
"'. c #B18531",
"]. c #B49A43",
"[. c #B69352",
"{. c #A7721C",
"}. c #AF802C",
"|. c #AA771C",
" X c #A9731E",
".X c #C1A64F",
"XX c #AB7D1C",
"oX c None",
"OX c #BAA053",
"+X c #AD7B27",
"@X c None",
"#X c #ADA361",
"$X c #A79653",
"%X c #AD7D29",
"&X c #AB7622",
"*X c #AC851E",
"=X c #A68D36",
"-X c #EFD06A",
";X c None",
":X c #B78434",
">X c None",
",X c None",
"<X c #AB7824",
"1X c #B6B16C",
"2X c #A38D3E",
"3X c #B7982E",
"4X c #A88E49",
"5X c None",
"6X c #B79C49",
"7X c #B38E3B",
"8X c #B18734",
"9X c #A9731F",
"0X c #AB8632",
"qX c #A28C4F",
"wX c #A99554",
"eX c #D2AD60",
"rX c #9C863B",
"tX c #B49B4D",
"yX c None",
"uX c #B6AF6B",
"iX c None",
"pX c None",
"aX c #A7862F",
"sX c #BC9E48",
"dX c None",
"fX c None",
"gX c #9B8A46",
"hX c #B6B16D",
"jX c #B29D5B",
"kX c #AC9651",
"lX c #AF8C21",
"zX c #B2A561",
"xX c #B49833",
"cX c #A28C3D",
"vX c #B49A59",
"bX c #AEA35E",
"nX c #AF8A20",
"mX c #B19127",
"MX c #A4761B",
"NX c #745819",
"BX c #B6B16E",
"VX c #B59129",
"CX c #BA9944",
"ZX c #BCA04B",
"AX c #AF8836",
"SX c #AC811D",
"DX c #B4AC69",
"FX c #AD8D22",
"GX c #B4994D",
"HX c #AE9F5B",
"JX c #B5AA62",
"KX c #AA914D",
"LX c #A27021",
"PX c #BA9B46",
"IX c #AF9334",
"UX c #D8BD66",
"YX c #A9964E",
"TX c #B5AC64",
"RX c #9E7A28",
"EX c #B18F26",
"WX c #9D8543",
"QX c #AF881F",
"!X c #A8741C",
"~X c #B89641",
"^X c #9B7C3A",
"/X c #A59151",
"(X c #AC7F1C",
")X c #B6913C",
"_X c #AD8B21",
"`X c #B19A53",
"'X c None",
"]X c #BCA04C",
"[X c #9D7227",
"{X c #C7AB49",
"}X c #AD7C20",
"|X c #B29123",
" o c #BC8C3B",
".o c #ACA05C",
"Xo c #B39847",
"oo c #B28732",
"Oo c #A48C47",
"+o c #B09B4E",
"@o c #B7B36C",
"#o c #AC9C59",
"$o c #9E813B",
"%o c #A88F43",
"&o c #B6913D",
"*o c None",
"=o c None",
"-o c None",
";o c #AC7621",
":o c #AC9E5B",
">o c #A18036",
",o c #836620",
"<o c #B48C38",
"1o c #9C8841",
"2o c #B7B16B",
"3o c #A19044",
"4o c None",
"5o c #A8721C",
"6o c #ACA05D",
"7o c #B28733",
"8o c #A37623",
"9o c None",
"0o c #AA731E",
"qo c #B7B36D",
"wo c #ACA25F",
"eo c #A3701E",
"ro c #A9924A",
"to c None",
"yo c #B0822E",
"uo c #B08E21",
"io c #A89143",
"po c #AA7520",
"ao c #B6952A",
"so c #BA9F4C",
"do c #B58539",
"fo c #9B7127",
"go c None",
"ho c #A98D3C",
"jo c #AE7D29",
"ko c #AD851E",
"lo c #A57322",
"zo c #BFA057",
"xo c None",
"co c #AE7F2B",
"vo c #AC7824",
"bo c #CDB16C",
"no c #A8721D",
"mo c #B59C59",
"Mo c #B89C49",
"No c #A89A57",
"Bo c #AC7A26",
"Vo c #B7B36E",
"Co c #CDAE5D",
"Zo c #DBBC55",
"Ao c #B0822F",
"So c #A28C42",
"Do c #E0C363",
"Fo c #AA7521",
"Go c #B5AE69",
"Ho c #AD831D",
"Jo c #B0973E",
"Ko c None",
"Lo c #A28436",
"Po c None",
"Io c None",
"Uo c #9A7D38",
"Yo c None",
"To c #A9761C",
"Ro c #B0914B",
"Eo c #BDA04A",
"Wo c #B59E5C",
"Qo c None",
"!o c #B29945",
"~o c None",
"^o c #AD831E",
"/o c #B99C5D",
"(o c #BB9D47",
")o c #A17322",
"_o c #E8CD82",
"`o c #987632",
"'o c #9C8A46",
"]o c #8F671B",
"[o c #9C741B",
"{o c #BDA04B",
"}o c #A89A59",
"|o c #B5AC69",
" O c #B0A359",
".O c #AE8D22",
"XO c None",
"oO c #A1843D",
"OO c #B89E4D",
"+O c #BB9B46",
"@O c #B28938",
"#O c #A28236",
"$O c #A0752A",
"%O c None",
"&O c #BB9D48",
"*O c #9A8945",
"=O c #B59D51",
"-O c #AA7A1C",
";O c #AA9F5F",
":O c #B99843",
">O c #A2863A",
",O c #AE9541",
"<O c #AD8847",
"1O c None",
"2O c #AB9243",
"3O c #D0B253",
"4O c #B4A961",
"5O c #BBA14D",
"6O c #A49453",
"7O c #AF8825",
"8O c #B7933E",
"9O c #A48137",
"0O c #AA7B29",
"qO c #EDCC62",
"wO c #C2A43F",
"eO c #B89E4E",
"rO c #BAB26C",
"tO c #B58E39",
"yO c None",
"uO c #B1A865",
"iO c #A28439",
"pO c #AE8920",
"aO c #A69247",
"sO c #B59427",
"dO c #B38934",
"fO c #B69730",
"gO c #C4A952",
"hO c #B6AE67",
"jO c #A6711F",
"kO c #AB9D59",
"lO c #A18C48",
"zO c #B19022",
"xO c #AC8C22",
"cO c #A0792F",
"vO c #BDA74F",
"bO c #987836",
"nO c #9C8134",
"mO c #B99A46",
"MO c #C5A84A",
"NO c #A68038",
"BO c None",
"VO c #9E8747",
"CO c #C0A64B",
"ZO c #9F7D38",
"AO c #AE871F",
"SO c #AA781C",
"DO c #B3995A",
"FO c #A37A2C",
"GO c None",
"HO c #B38935",
"JO c #AB7E1C",
"KO c #B2A05A",
"LO c #CEB153",
"PO c None",
"IO c None",
"UO c None",
"YO c #9C873A",
"TO c #B18430",
"RO c #AF7D29",
"EO c #B19F53",
"WO c #AB9245",
"QO c #B08C25",
"!O c #ADA663",
"~O c #B18632",
"^O c #A78A25",
"/O c #BF9C58",
"(O c #A9721D",
")O c #B6B26C",
"_O c None",
"`O c #B1A060",
"'O c #AF812D",
"]O c #B4A560",
"[O c #AD7A26",
"{O c #ADA260",
"}O c #A9741F",
"|O c #997A34",
" + c #AD7C28",
".+ c #A38A3B",
"X+ c #A87D38",
"o+ c #C0A34D",
"O+ c #A18B3B",
"++ c #D4B85D",
"@+ c None",
"#+ c #AB7723",
"$+ c #9D7C38",
"%+ c #B6B06B",
"&+ c #E2C468",
"*+ c #A99856",
"=+ c #A7711C",
"-+ c #AC861F",
";+ c #B18633",
":+ c #B6B26D",
">+ c #CA9E4E",
",+ c #AB7C1C",
"<+ c #A58C4A",
"1+ c #A6984F",
"2+ c #A3883A",
"3+ c #AF8D21",
"4+ c #E5C46D",
"5+ c #AF9B5C",
"6+ c #776127",
"7+ c None",
"8+ c #B99E4C",
"9+ c #A9893E",
"0+ c #B6AE6A",
"q+ c #A97F1E",
"w+ c #AC841E",
"e+ c #B19848",
"r+ c None",
"t+ c None",
"y+ c #BC9F49",
"u+ c #B09042",
"i+ c #AF8B20",
"p+ c #A28627",
"a+ c #D7B55A",
"s+ c #A67526",
"d+ c #A3731D",
"f+ c #AB7926",
"g+ c #AF8E46",
"h+ c #9D803D",
"j+ c #AC821D",
"k+ c #EDD06B",
"l+ c None",
"z+ c #C8B46E",
"x+ c #A3852D",
"c+ c #AA8B24",
"v+ c #B4AF6B",
"b+ c None",
"n+ c #D9BB5B",
"m+ c #BA9641",
"M+ c #BB9653",
"N+ c #AF891F",
"B+ c #B59A48",
"V+ c #AA8133",
"C+ c #A6761C",
"Z+ c None",
"A+ c #DABD67",
"S+ c #BC9F4A",
"D+ c #AF8B21",
"F+ c #AC801C",
"G+ c #BA9A45",
"H+ c #AA9853",
"J+ c #A8914C",
"K+ c #A09053",
"L+ c #E4C972",
"P+ c #C6A950",
"I+ c #AB7B29",
"U+ c #A08B44",
"Y+ c #AC821E",
"T+ c #AB8840",
"R+ c #B49F5E",
"E+ c #B89540",
"W+ c #A59655",
"Q+ c #B39947",
"!+ c #9E8039",
"~+ c #AF8920",
"^+ c None",
"/+ c #C7B071",
"(+ c #B59A49",
")+ c #B6903B",
"_+ c #B89742",
"`+ c #A5853B",
"'+ c #A97826",
"]+ c #B89A39",
"[+ c #B68A36",
"{+ c None",
"}+ c #AA7B2F",
"|+ c #BDA764",
" @ c #B6923D",
".@ c #AC801D",
"X@ c #B7B069",
"o@ c None",
"O@ c #CAAB53",
"+@ c None",
/* pixels */
"                                                                ",
"                      - ^+pXoXw t+d.J yX,X                      ",
"                Po_ l+n+P+hor 6+R.: O@&+^ -ou.                  ",
"              xop % /+9.n (+XoQ+B+Moo+CoF _o-XR Yo              ",
"          4o_OZoz+|+m.0.! ! ! ! S+(oG+ .m+{ @.4+D 7+            ",
"        PoGO.XV.OX0.! ! ! ! {oy+' CXE+&oG.HO[+>+eXH ;X          ",
"        %Oe+P OO! ! ! ! ! S+..PX:Op.)+<ot TO}.RO o/OwOy         ",
"      ] [ &.:.! ! ! ! so=OroI GXu+*.AXooAoco+X<X^.:X[.5XYo      ",
"    `.dXqXtX! ! ! ! q.KOzX6OOo#oHXW+Y 'OjoBo#+po X0odoRo~o      ",
"    f.YXJ.ZX! ! ! 6X$XV k.T 7X9+g.NoQ  +M K a (Om m ;o<OJoPO    ",
"  IoL.wX8+! ! ! S+/ bX4O.o`+3 ;+s }o$O<XFo Xnom m 5o!XZ 4Xto    ",
"  >X. `X! ! {oy+mOH+i.JX6o9O'.'OV+/XC po Xm m m @ !XTo}Xu 5.,X  ",
"  =.jXeO! EosX+OE kOTXTXe M.}. +'+/.E.nom m 5o@ X.N N.,+5 So$   ",
"  'X5+]XS+&OG+6.>.:o& & wocO0OT+<+`oJ+g+s+{.!XX.|.-O,+(XB.lO@X  ",
"PoMOR+7.<.CX~Xw.2.W.hOhO{O#.P.t.T.[X*+rOX e.X.SO$.XXF+^o7OVOfX  ",
"+@%.WoPX:OE+)Xo 8XkX(.(.#Xh 3.foeo).h+Go6 8 d $.JOSXL AOQO1oIO  ",
"- vOmo_+8OI.3 7ok c |oX@#XbO$+l.f K+G 0+6 uORX(X( koAOnXEXWXr+  ",
"IoCOvX @tO!.~Oyov I+KXz.DXZOLXNO> Uo!+uX2o} nOj+S.QXi+A mX*OB   ",
"  {XDO9 dOTO}.%XM K lo|O]O`O^XW $od+iO%++ )OrX*X~+lXuo~.z gXUO  ",
"  y./o@Ok co +vox 9Xno=+0 ,.)o8oO.N.>O1X@o:+YOpOlXuozOzOIXq #   ",
"  h._.+.v [O#+po Xm m m 5oFOoOC+-OS 2+hXqov+A.lX, zOzOa.b.1.-   ",
"  o@DoM+f+&Xa (Om m 5o@ !X>o;Ox.JO.@.+BXVo!Op+, zOzOzO` 'o{+    ",
"    yObo}+}Onom m 5o@ X.N #OU.j q+w+2XBX-.3oxOzOzOzO|Xb * b+    ",
"    9oL+;.jOm m @ !XToSO-OLo-.Q.+ox+s.BX1+^OzOzOzOzOfOU+r.Po    ",
"      c.C.X+| @ !XToN.$.JOaXaO,OEOO+ O4 c+zOzOzOzO2 io=X1O      ",
"      IogozoC n.N N.,+(X( w+-+pO_X.OFXl zOzOzOzOao2O4.iX        ",
"        *o@+0X]oMXXXF+Hokov.i+3+, zOzOzOzOzO|X3XWOcX=o4o        ",
"          *oK.,oNX[oY+S.N+D+A , zOzOzOzOzO8.]+< H.KoPo          ",
"            Ioo.= U Y.VX7 ~.zOzOzO|XsOj.) !o%oD.b+              ",
"                1OZ+g a+A+UX++O 3OLOgO5O].xXBO`.                ",
"                    o@QoXOi k+qO; Z.1 ~ # Io                    ",
"                            F.- +@Po                            "
};
